<svg xmlns="http://www.w3.org/2000/svg" xmlns:xlink="http://www.w3.org/1999/xlink" width="436" zoomAndPan="magnify" viewBox="0 0 327 76.499998" height="102" preserveAspectRatio="xMidYMid meet" version="1.0"><defs><g/><clipPath id="149ab6e145"><path d="M 1.0625 3.34375 L 73.566406 3.34375 L 73.566406 72.089844 L 1.0625 72.089844 Z M 1.0625 3.34375 " clip-rule="nonzero"/></clipPath><clipPath id="8eae1e9b15"><path d="M 12.238281 3.34375 L 62.339844 3.34375 C 65.304688 3.34375 68.148438 4.523438 70.246094 6.617188 C 72.339844 8.714844 73.519531 11.558594 73.519531 14.523438 L 73.519531 60.914062 C 73.519531 63.878906 72.339844 66.722656 70.246094 68.816406 C 68.148438 70.914062 65.304688 72.089844 62.339844 72.089844 L 12.238281 72.089844 C 9.273438 72.089844 6.429688 70.914062 4.335938 68.816406 C 2.238281 66.722656 1.0625 63.878906 1.0625 60.914062 L 1.0625 14.523438 C 1.0625 11.558594 2.238281 8.714844 4.335938 6.617188 C 6.429688 4.523438 9.273438 3.34375 12.238281 3.34375 Z M 12.238281 3.34375 " clip-rule="nonzero"/></clipPath><clipPath id="16b6e9b483"><path d="M 0.0625 0.34375 L 72.546875 0.34375 L 72.546875 69.089844 L 0.0625 69.089844 Z M 0.0625 0.34375 " clip-rule="nonzero"/></clipPath><clipPath id="09d476a4e8"><path d="M 11.238281 0.34375 L 61.339844 0.34375 C 64.304688 0.34375 67.148438 1.523438 69.246094 3.617188 C 71.339844 5.714844 72.519531 8.558594 72.519531 11.523438 L 72.519531 57.914062 C 72.519531 60.878906 71.339844 63.722656 69.246094 65.816406 C 67.148438 67.914062 64.304688 69.089844 61.339844 69.089844 L 11.238281 69.089844 C 8.273438 69.089844 5.429688 67.914062 3.335938 65.816406 C 1.238281 63.722656 0.0625 60.878906 0.0625 57.914062 L 0.0625 11.523438 C 0.0625 8.558594 1.238281 5.714844 3.335938 3.617188 C 5.429688 1.523438 8.273438 0.34375 11.238281 0.34375 Z M 11.238281 0.34375 " clip-rule="nonzero"/></clipPath><clipPath id="6bec5af0b7"><rect x="0" width="73" y="0" height="70"/></clipPath><clipPath id="2be392c0a7"><rect x="0" width="238" y="0" height="31"/></clipPath><clipPath id="153bdfecea"><rect x="0" width="122" y="0" height="19"/></clipPath></defs><g clip-path="url(#149ab6e145)"><g clip-path="url(#8eae1e9b15)"><g transform="matrix(1, 0, 0, 1, 1, 3)"><g clip-path="url(#6bec5af0b7)"><g clip-path="url(#16b6e9b483)"><g clip-path="url(#09d476a4e8)"><path fill="#ea842a" d="M 0.0625 0.34375 L 72.566406 0.34375 L 72.566406 69.089844 L 0.0625 69.089844 Z M 0.0625 0.34375 " fill-opacity="1" fill-rule="nonzero"/></g></g></g></g></g></g><g transform="matrix(1, 0, 0, 1, 82, 15)"><g clip-path="url(#2be392c0a7)"><g fill="#ea842a" fill-opacity="1"><g transform="translate(0.646845, 23.990528)"><g><path d="M 12.71875 0 L 9.46875 -4.6875 L 5.890625 -4.6875 L 5.890625 0 L 2 0 L 2 -16.828125 L 9.28125 -16.828125 C 10.769531 -16.828125 12.0625 -16.578125 13.15625 -16.078125 C 14.257812 -15.585938 15.109375 -14.882812 15.703125 -13.96875 C 16.296875 -13.050781 16.59375 -11.96875 16.59375 -10.71875 C 16.59375 -9.46875 16.289062 -8.390625 15.6875 -7.484375 C 15.082031 -6.578125 14.226562 -5.882812 13.125 -5.40625 L 16.90625 0 Z M 12.65625 -10.71875 C 12.65625 -11.664062 12.347656 -12.390625 11.734375 -12.890625 C 11.128906 -13.398438 10.238281 -13.65625 9.0625 -13.65625 L 5.890625 -13.65625 L 5.890625 -7.796875 L 9.0625 -7.796875 C 10.238281 -7.796875 11.128906 -8.050781 11.734375 -8.5625 C 12.347656 -9.070312 12.65625 -9.789062 12.65625 -10.71875 Z M 12.65625 -10.71875 "/></g></g></g><g fill="#ea842a" fill-opacity="1"><g transform="translate(18.67543, 23.990528)"><g><path d="M 13.078125 -3.609375 L 5.265625 -3.609375 L 3.78125 0 L -0.21875 0 L 7.28125 -16.828125 L 11.140625 -16.828125 L 18.65625 0 L 14.578125 0 Z M 11.859375 -6.5625 L 9.1875 -13.015625 L 6.515625 -6.5625 Z M 11.859375 -6.5625 "/></g></g></g><g fill="#ea842a" fill-opacity="1"><g transform="translate(37.449187, 23.990528)"><g><path d="M 17.3125 0 L 17.296875 -10.09375 L 12.34375 -1.78125 L 10.578125 -1.78125 L 5.65625 -9.890625 L 5.65625 0 L 2 0 L 2 -16.828125 L 5.21875 -16.828125 L 11.515625 -6.375 L 17.71875 -16.828125 L 20.921875 -16.828125 L 20.96875 0 Z M 17.3125 0 "/></g></g></g><g fill="#ea842a" fill-opacity="1"><g transform="translate(60.766098, 23.990528)"><g/></g></g><g fill="#ea842a" fill-opacity="1"><g transform="translate(67.929588, 23.990528)"><g><path d="M 10.046875 0.28125 C 8.335938 0.28125 6.785156 -0.0859375 5.390625 -0.828125 C 4.003906 -1.578125 2.914062 -2.613281 2.125 -3.9375 C 1.332031 -5.257812 0.9375 -6.753906 0.9375 -8.421875 C 0.9375 -10.085938 1.332031 -11.582031 2.125 -12.90625 C 2.914062 -14.226562 4.003906 -15.257812 5.390625 -16 C 6.785156 -16.75 8.347656 -17.125 10.078125 -17.125 C 11.535156 -17.125 12.851562 -16.863281 14.03125 -16.34375 C 15.207031 -15.832031 16.195312 -15.097656 17 -14.140625 L 14.5 -11.828125 C 13.363281 -13.140625 11.953125 -13.796875 10.265625 -13.796875 C 9.222656 -13.796875 8.289062 -13.566406 7.46875 -13.109375 C 6.65625 -12.660156 6.019531 -12.023438 5.5625 -11.203125 C 5.101562 -10.390625 4.875 -9.460938 4.875 -8.421875 C 4.875 -7.378906 5.101562 -6.445312 5.5625 -5.625 C 6.019531 -4.8125 6.65625 -4.175781 7.46875 -3.71875 C 8.289062 -3.257812 9.222656 -3.03125 10.265625 -3.03125 C 11.953125 -3.03125 13.363281 -3.695312 14.5 -5.03125 L 17 -2.71875 C 16.195312 -1.738281 15.203125 -0.992188 14.015625 -0.484375 C 12.828125 0.0234375 11.503906 0.28125 10.046875 0.28125 Z M 10.046875 0.28125 "/></g></g></g><g fill="#ea842a" fill-opacity="1"><g transform="translate(85.910097, 23.990528)"><g><path d="M 15.03125 -3.125 L 15.03125 0 L 2 0 L 2 -16.828125 L 14.71875 -16.828125 L 14.71875 -13.703125 L 5.875 -13.703125 L 5.875 -10.046875 L 13.6875 -10.046875 L 13.6875 -7.015625 L 5.875 -7.015625 L 5.875 -3.125 Z M 15.03125 -3.125 "/></g></g></g><g fill="#ea842a" fill-opacity="1"><g transform="translate(102.400262, 23.990528)"><g><path d="M 2 -16.828125 L 5.890625 -16.828125 L 5.890625 0 L 2 0 Z M 2 -16.828125 "/></g></g></g><g fill="#ea842a" fill-opacity="1"><g transform="translate(110.645457, 23.990528)"><g><path d="M 2 -16.828125 L 5.890625 -16.828125 L 5.890625 -3.171875 L 14.328125 -3.171875 L 14.328125 0 L 2 0 Z M 2 -16.828125 "/></g></g></g><g fill="#ea842a" fill-opacity="1"><g transform="translate(125.525094, 23.990528)"><g><path d="M 2 -16.828125 L 5.890625 -16.828125 L 5.890625 0 L 2 0 Z M 2 -16.828125 "/></g></g></g><g fill="#ea842a" fill-opacity="1"><g transform="translate(133.770289, 23.990528)"><g><path d="M 17.4375 -16.828125 L 17.4375 0 L 14.234375 0 L 5.84375 -10.21875 L 5.84375 0 L 2 0 L 2 -16.828125 L 5.21875 -16.828125 L 13.59375 -6.609375 L 13.59375 -16.828125 Z M 17.4375 -16.828125 "/></g></g></g><g fill="#ea842a" fill-opacity="1"><g transform="translate(153.553629, 23.990528)"><g><path d="M 13.375 -8.6875 L 16.921875 -8.6875 L 16.921875 -1.859375 C 16.015625 -1.160156 14.957031 -0.628906 13.75 -0.265625 C 12.550781 0.0976562 11.34375 0.28125 10.125 0.28125 C 8.375 0.28125 6.800781 -0.0859375 5.40625 -0.828125 C 4.007812 -1.578125 2.914062 -2.613281 2.125 -3.9375 C 1.332031 -5.257812 0.9375 -6.753906 0.9375 -8.421875 C 0.9375 -10.085938 1.332031 -11.582031 2.125 -12.90625 C 2.914062 -14.226562 4.015625 -15.257812 5.421875 -16 C 6.835938 -16.75 8.429688 -17.125 10.203125 -17.125 C 11.671875 -17.125 13.003906 -16.875 14.203125 -16.375 C 15.410156 -15.875 16.421875 -15.15625 17.234375 -14.21875 L 14.734375 -11.90625 C 13.535156 -13.164062 12.085938 -13.796875 10.390625 -13.796875 C 9.316406 -13.796875 8.363281 -13.570312 7.53125 -13.125 C 6.695312 -12.675781 6.046875 -12.039062 5.578125 -11.21875 C 5.109375 -10.40625 4.875 -9.472656 4.875 -8.421875 C 4.875 -7.378906 5.109375 -6.445312 5.578125 -5.625 C 6.046875 -4.8125 6.691406 -4.175781 7.515625 -3.71875 C 8.335938 -3.257812 9.28125 -3.03125 10.34375 -3.03125 C 11.46875 -3.03125 12.476562 -3.269531 13.375 -3.75 Z M 13.375 -8.6875 "/></g></g></g><g fill="#ea842a" fill-opacity="1"><g transform="translate(172.44757, 23.990528)"><g/></g></g><g fill="#ea842a" fill-opacity="1"><g transform="translate(179.61106, 23.990528)"><g><path d="M 9.28125 -16.828125 C 10.769531 -16.828125 12.0625 -16.578125 13.15625 -16.078125 C 14.257812 -15.585938 15.109375 -14.882812 15.703125 -13.96875 C 16.296875 -13.050781 16.59375 -11.96875 16.59375 -10.71875 C 16.59375 -9.488281 16.296875 -8.410156 15.703125 -7.484375 C 15.109375 -6.566406 14.257812 -5.863281 13.15625 -5.375 C 12.0625 -4.882812 10.769531 -4.640625 9.28125 -4.640625 L 5.890625 -4.640625 L 5.890625 0 L 2 0 L 2 -16.828125 Z M 9.0625 -7.8125 C 10.238281 -7.8125 11.128906 -8.0625 11.734375 -8.5625 C 12.347656 -9.070312 12.65625 -9.789062 12.65625 -10.71875 C 12.65625 -11.664062 12.347656 -12.390625 11.734375 -12.890625 C 11.128906 -13.398438 10.238281 -13.65625 9.0625 -13.65625 L 5.890625 -13.65625 L 5.890625 -7.8125 Z M 9.0625 -7.8125 "/></g></g></g><g fill="#ea842a" fill-opacity="1"><g transform="translate(197.567538, 23.990528)"><g><path d="M 12.71875 0 L 9.46875 -4.6875 L 5.890625 -4.6875 L 5.890625 0 L 2 0 L 2 -16.828125 L 9.28125 -16.828125 C 10.769531 -16.828125 12.0625 -16.578125 13.15625 -16.078125 C 14.257812 -15.585938 15.109375 -14.882812 15.703125 -13.96875 C 16.296875 -13.050781 16.59375 -11.96875 16.59375 -10.71875 C 16.59375 -9.46875 16.289062 -8.390625 15.6875 -7.484375 C 15.082031 -6.578125 14.226562 -5.882812 13.125 -5.40625 L 16.90625 0 Z M 12.65625 -10.71875 C 12.65625 -11.664062 12.347656 -12.390625 11.734375 -12.890625 C 11.128906 -13.398438 10.238281 -13.65625 9.0625 -13.65625 L 5.890625 -13.65625 L 5.890625 -7.796875 L 9.0625 -7.796875 C 10.238281 -7.796875 11.128906 -8.050781 11.734375 -8.5625 C 12.347656 -9.070312 12.65625 -9.789062 12.65625 -10.71875 Z M 12.65625 -10.71875 "/></g></g></g><g fill="#ea842a" fill-opacity="1"><g transform="translate(215.596123, 23.990528)"><g><path d="M 10.140625 0.28125 C 8.398438 0.28125 6.828125 -0.09375 5.421875 -0.84375 C 4.015625 -1.59375 2.914062 -2.628906 2.125 -3.953125 C 1.332031 -5.273438 0.9375 -6.765625 0.9375 -8.421875 C 0.9375 -10.066406 1.332031 -11.550781 2.125 -12.875 C 2.914062 -14.195312 4.015625 -15.234375 5.421875 -15.984375 C 6.828125 -16.742188 8.398438 -17.125 10.140625 -17.125 C 11.890625 -17.125 13.460938 -16.742188 14.859375 -15.984375 C 16.253906 -15.234375 17.351562 -14.195312 18.15625 -12.875 C 18.957031 -11.550781 19.359375 -10.066406 19.359375 -8.421875 C 19.359375 -6.765625 18.957031 -5.273438 18.15625 -3.953125 C 17.351562 -2.628906 16.253906 -1.59375 14.859375 -0.84375 C 13.460938 -0.09375 11.890625 0.28125 10.140625 0.28125 Z M 10.140625 -3.03125 C 11.140625 -3.03125 12.039062 -3.257812 12.84375 -3.71875 C 13.644531 -4.175781 14.269531 -4.8125 14.71875 -5.625 C 15.175781 -6.445312 15.40625 -7.378906 15.40625 -8.421875 C 15.40625 -9.460938 15.175781 -10.390625 14.71875 -11.203125 C 14.269531 -12.023438 13.644531 -12.660156 12.84375 -13.109375 C 12.039062 -13.566406 11.140625 -13.796875 10.140625 -13.796875 C 9.148438 -13.796875 8.253906 -13.566406 7.453125 -13.109375 C 6.648438 -12.660156 6.019531 -12.023438 5.5625 -11.203125 C 5.101562 -10.390625 4.875 -9.460938 4.875 -8.421875 C 4.875 -7.378906 5.101562 -6.445312 5.5625 -5.625 C 6.019531 -4.8125 6.648438 -4.175781 7.453125 -3.71875 C 8.253906 -3.257812 9.148438 -3.03125 10.140625 -3.03125 Z M 10.140625 -3.03125 "/></g></g></g></g></g><g transform="matrix(1, 0, 0, 1, 82, 40)"><g clip-path="url(#153bdfecea)"><g fill="#f6af70" fill-opacity="1"><g transform="translate(0.646845, 14.127898)"><g><path d="M 8.90625 -7.8125 L 8.90625 0 L 6.765625 0 L 6.765625 -0.921875 C 6.460938 -0.585938 6.101562 -0.332031 5.6875 -0.15625 C 5.269531 0.0195312 4.820312 0.109375 4.34375 0.109375 C 3.3125 0.109375 2.492188 -0.179688 1.890625 -0.765625 C 1.296875 -1.359375 1 -2.234375 1 -3.390625 L 1 -7.8125 L 3.265625 -7.8125 L 3.265625 -3.734375 C 3.265625 -2.472656 3.789062 -1.84375 4.84375 -1.84375 C 5.382812 -1.84375 5.816406 -2.019531 6.140625 -2.375 C 6.472656 -2.726562 6.640625 -3.253906 6.640625 -3.953125 L 6.640625 -7.8125 Z M 8.90625 -7.8125 "/></g></g></g><g fill="#f6af70" fill-opacity="1"><g transform="translate(10.834593, 14.127898)"><g><path d="M 5.609375 -10.15625 C 6.503906 -10.15625 7.28125 -10.003906 7.9375 -9.703125 C 8.601562 -9.410156 9.113281 -8.988281 9.46875 -8.4375 C 9.832031 -7.882812 10.015625 -7.226562 10.015625 -6.46875 C 10.015625 -5.726562 9.832031 -5.078125 9.46875 -4.515625 C 9.113281 -3.960938 8.601562 -3.535156 7.9375 -3.234375 C 7.28125 -2.941406 6.503906 -2.796875 5.609375 -2.796875 L 3.5625 -2.796875 L 3.5625 0 L 1.203125 0 L 1.203125 -10.15625 Z M 5.46875 -4.71875 C 6.175781 -4.71875 6.710938 -4.867188 7.078125 -5.171875 C 7.453125 -5.472656 7.640625 -5.90625 7.640625 -6.46875 C 7.640625 -7.039062 7.453125 -7.476562 7.078125 -7.78125 C 6.710938 -8.09375 6.175781 -8.25 5.46875 -8.25 L 3.5625 -8.25 L 3.5625 -4.71875 Z M 5.46875 -4.71875 "/></g></g></g><g fill="#f6af70" fill-opacity="1"><g transform="translate(21.675405, 14.127898)"><g><path d="M 10.96875 -10.15625 L 6.578125 0 L 4.25 0 L -0.125 -10.15625 L 2.40625 -10.15625 L 5.5 -2.90625 L 8.640625 -10.15625 Z M 10.96875 -10.15625 "/></g></g></g><g fill="#f6af70" fill-opacity="1"><g transform="translate(32.71939, 14.127898)"><g><path d="M 6.0625 0.171875 C 5.03125 0.171875 4.09375 -0.0507812 3.25 -0.5 C 2.414062 -0.945312 1.757812 -1.570312 1.28125 -2.375 C 0.800781 -3.175781 0.5625 -4.078125 0.5625 -5.078125 C 0.5625 -6.085938 0.800781 -6.988281 1.28125 -7.78125 C 1.757812 -8.582031 2.414062 -9.207031 3.25 -9.65625 C 4.09375 -10.101562 5.035156 -10.328125 6.078125 -10.328125 C 6.960938 -10.328125 7.757812 -10.171875 8.46875 -9.859375 C 9.175781 -9.554688 9.773438 -9.113281 10.265625 -8.53125 L 8.75 -7.140625 C 8.0625 -7.929688 7.210938 -8.328125 6.203125 -8.328125 C 5.566406 -8.328125 5.003906 -8.1875 4.515625 -7.90625 C 4.023438 -7.632812 3.640625 -7.253906 3.359375 -6.765625 C 3.085938 -6.273438 2.953125 -5.710938 2.953125 -5.078125 C 2.953125 -4.453125 3.085938 -3.890625 3.359375 -3.390625 C 3.640625 -2.898438 4.023438 -2.515625 4.515625 -2.234375 C 5.003906 -1.960938 5.566406 -1.828125 6.203125 -1.828125 C 7.210938 -1.828125 8.0625 -2.226562 8.75 -3.03125 L 10.265625 -1.640625 C 9.773438 -1.046875 9.171875 -0.59375 8.453125 -0.28125 C 7.742188 0.0195312 6.945312 0.171875 6.0625 0.171875 Z M 6.0625 0.171875 "/></g></g></g><g fill="#f6af70" fill-opacity="1"><g transform="translate(43.574714, 14.127898)"><g/></g></g><g fill="#f6af70" fill-opacity="1"><g transform="translate(47.899436, 14.127898)"><g><path d="M 4.546875 0.171875 C 3.742188 0.171875 2.96875 0.0625 2.21875 -0.15625 C 1.46875 -0.375 0.863281 -0.65625 0.40625 -1 L 1.203125 -2.765625 C 1.640625 -2.453125 2.15625 -2.195312 2.75 -2 C 3.351562 -1.8125 3.957031 -1.71875 4.5625 -1.71875 C 5.226562 -1.71875 5.71875 -1.816406 6.03125 -2.015625 C 6.351562 -2.210938 6.515625 -2.472656 6.515625 -2.796875 C 6.515625 -3.046875 6.421875 -3.25 6.234375 -3.40625 C 6.046875 -3.5625 5.800781 -3.6875 5.5 -3.78125 C 5.207031 -3.882812 4.8125 -3.992188 4.3125 -4.109375 C 3.539062 -4.296875 2.90625 -4.476562 2.40625 -4.65625 C 1.914062 -4.84375 1.492188 -5.140625 1.140625 -5.546875 C 0.785156 -5.953125 0.609375 -6.492188 0.609375 -7.171875 C 0.609375 -7.765625 0.765625 -8.300781 1.078125 -8.78125 C 1.398438 -9.257812 1.882812 -9.632812 2.53125 -9.90625 C 3.175781 -10.1875 3.960938 -10.328125 4.890625 -10.328125 C 5.535156 -10.328125 6.164062 -10.25 6.78125 -10.09375 C 7.40625 -9.945312 7.953125 -9.726562 8.421875 -9.4375 L 7.6875 -7.65625 C 6.75 -8.1875 5.8125 -8.453125 4.875 -8.453125 C 4.21875 -8.453125 3.734375 -8.34375 3.421875 -8.125 C 3.109375 -7.914062 2.953125 -7.632812 2.953125 -7.28125 C 2.953125 -6.9375 3.128906 -6.675781 3.484375 -6.5 C 3.847656 -6.332031 4.40625 -6.171875 5.15625 -6.015625 C 5.925781 -5.828125 6.554688 -5.640625 7.046875 -5.453125 C 7.546875 -5.273438 7.972656 -4.984375 8.328125 -4.578125 C 8.679688 -4.179688 8.859375 -3.644531 8.859375 -2.96875 C 8.859375 -2.394531 8.691406 -1.867188 8.359375 -1.390625 C 8.035156 -0.910156 7.550781 -0.53125 6.90625 -0.25 C 6.257812 0.03125 5.472656 0.171875 4.546875 0.171875 Z M 4.546875 0.171875 "/></g></g></g><g fill="#f6af70" fill-opacity="1"><g transform="translate(57.376076, 14.127898)"><g><path d="M 4.765625 0.109375 C 3.941406 0.109375 3.203125 -0.0625 2.546875 -0.40625 C 1.890625 -0.75 1.378906 -1.222656 1.015625 -1.828125 C 0.648438 -2.441406 0.46875 -3.132812 0.46875 -3.90625 C 0.46875 -4.675781 0.648438 -5.363281 1.015625 -5.96875 C 1.378906 -6.582031 1.890625 -7.0625 2.546875 -7.40625 C 3.203125 -7.75 3.941406 -7.921875 4.765625 -7.921875 C 5.585938 -7.921875 6.320312 -7.75 6.96875 -7.40625 C 7.613281 -7.0625 8.117188 -6.582031 8.484375 -5.96875 C 8.859375 -5.363281 9.046875 -4.675781 9.046875 -3.90625 C 9.046875 -3.132812 8.859375 -2.441406 8.484375 -1.828125 C 8.117188 -1.222656 7.613281 -0.75 6.96875 -0.40625 C 6.320312 -0.0625 5.585938 0.109375 4.765625 0.109375 Z M 4.765625 -1.734375 C 5.335938 -1.734375 5.8125 -1.929688 6.1875 -2.328125 C 6.5625 -2.722656 6.75 -3.25 6.75 -3.90625 C 6.75 -4.5625 6.5625 -5.082031 6.1875 -5.46875 C 5.8125 -5.863281 5.335938 -6.0625 4.765625 -6.0625 C 4.179688 -6.0625 3.703125 -5.863281 3.328125 -5.46875 C 2.953125 -5.082031 2.765625 -4.5625 2.765625 -3.90625 C 2.765625 -3.25 2.953125 -2.722656 3.328125 -2.328125 C 3.703125 -1.929688 4.179688 -1.734375 4.765625 -1.734375 Z M 4.765625 -1.734375 "/></g></g></g><g fill="#f6af70" fill-opacity="1"><g transform="translate(67.099426, 14.127898)"><g><path d="M 1.046875 -10.765625 L 3.3125 -10.765625 L 3.3125 0 L 1.046875 0 Z M 1.046875 -10.765625 "/></g></g></g><g fill="#f6af70" fill-opacity="1"><g transform="translate(71.685368, 14.127898)"><g><path d="M 8.90625 -7.8125 L 8.90625 0 L 6.765625 0 L 6.765625 -0.921875 C 6.460938 -0.585938 6.101562 -0.332031 5.6875 -0.15625 C 5.269531 0.0195312 4.820312 0.109375 4.34375 0.109375 C 3.3125 0.109375 2.492188 -0.179688 1.890625 -0.765625 C 1.296875 -1.359375 1 -2.234375 1 -3.390625 L 1 -7.8125 L 3.265625 -7.8125 L 3.265625 -3.734375 C 3.265625 -2.472656 3.789062 -1.84375 4.84375 -1.84375 C 5.382812 -1.84375 5.816406 -2.019531 6.140625 -2.375 C 6.472656 -2.726562 6.640625 -3.253906 6.640625 -3.953125 L 6.640625 -7.8125 Z M 8.90625 -7.8125 "/></g></g></g><g fill="#f6af70" fill-opacity="1"><g transform="translate(81.873116, 14.127898)"><g><path d="M 6.078125 -0.375 C 5.859375 -0.207031 5.585938 -0.0820312 5.265625 0 C 4.941406 0.0703125 4.597656 0.109375 4.234375 0.109375 C 3.304688 0.109375 2.585938 -0.125 2.078125 -0.59375 C 1.578125 -1.070312 1.328125 -1.769531 1.328125 -2.6875 L 1.328125 -5.890625 L 0.109375 -5.890625 L 0.109375 -7.640625 L 1.328125 -7.640625 L 1.328125 -9.53125 L 3.578125 -9.53125 L 3.578125 -7.640625 L 5.53125 -7.640625 L 5.53125 -5.890625 L 3.578125 -5.890625 L 3.578125 -2.71875 C 3.578125 -2.382812 3.660156 -2.128906 3.828125 -1.953125 C 4.003906 -1.773438 4.25 -1.6875 4.5625 -1.6875 C 4.914062 -1.6875 5.21875 -1.78125 5.46875 -1.96875 Z M 6.078125 -0.375 "/></g></g></g><g fill="#f6af70" fill-opacity="1"><g transform="translate(88.403729, 14.127898)"><g><path d="M 1.046875 -7.8125 L 3.3125 -7.8125 L 3.3125 0 L 1.046875 0 Z M 2.171875 -8.890625 C 1.753906 -8.890625 1.414062 -9.007812 1.15625 -9.25 C 0.894531 -9.5 0.765625 -9.800781 0.765625 -10.15625 C 0.765625 -10.519531 0.894531 -10.820312 1.15625 -11.0625 C 1.414062 -11.300781 1.753906 -11.421875 2.171875 -11.421875 C 2.585938 -11.421875 2.925781 -11.304688 3.1875 -11.078125 C 3.445312 -10.847656 3.578125 -10.554688 3.578125 -10.203125 C 3.578125 -9.828125 3.445312 -9.515625 3.1875 -9.265625 C 2.925781 -9.015625 2.585938 -8.890625 2.171875 -8.890625 Z M 2.171875 -8.890625 "/></g></g></g><g fill="#f6af70" fill-opacity="1"><g transform="translate(92.989666, 14.127898)"><g><path d="M 4.765625 0.109375 C 3.941406 0.109375 3.203125 -0.0625 2.546875 -0.40625 C 1.890625 -0.75 1.378906 -1.222656 1.015625 -1.828125 C 0.648438 -2.441406 0.46875 -3.132812 0.46875 -3.90625 C 0.46875 -4.675781 0.648438 -5.363281 1.015625 -5.96875 C 1.378906 -6.582031 1.890625 -7.0625 2.546875 -7.40625 C 3.203125 -7.75 3.941406 -7.921875 4.765625 -7.921875 C 5.585938 -7.921875 6.320312 -7.75 6.96875 -7.40625 C 7.613281 -7.0625 8.117188 -6.582031 8.484375 -5.96875 C 8.859375 -5.363281 9.046875 -4.675781 9.046875 -3.90625 C 9.046875 -3.132812 8.859375 -2.441406 8.484375 -1.828125 C 8.117188 -1.222656 7.613281 -0.75 6.96875 -0.40625 C 6.320312 -0.0625 5.585938 0.109375 4.765625 0.109375 Z M 4.765625 -1.734375 C 5.335938 -1.734375 5.8125 -1.929688 6.1875 -2.328125 C 6.5625 -2.722656 6.75 -3.25 6.75 -3.90625 C 6.75 -4.5625 6.5625 -5.082031 6.1875 -5.46875 C 5.8125 -5.863281 5.335938 -6.0625 4.765625 -6.0625 C 4.179688 -6.0625 3.703125 -5.863281 3.328125 -5.46875 C 2.953125 -5.082031 2.765625 -4.5625 2.765625 -3.90625 C 2.765625 -3.25 2.953125 -2.722656 3.328125 -2.328125 C 3.703125 -1.929688 4.179688 -1.734375 4.765625 -1.734375 Z M 4.765625 -1.734375 "/></g></g></g><g fill="#f6af70" fill-opacity="1"><g transform="translate(102.713025, 14.127898)"><g><path d="M 5.796875 -7.921875 C 6.765625 -7.921875 7.546875 -7.628906 8.140625 -7.046875 C 8.734375 -6.472656 9.03125 -5.613281 9.03125 -4.46875 L 9.03125 0 L 6.765625 0 L 6.765625 -4.125 C 6.765625 -4.738281 6.628906 -5.195312 6.359375 -5.5 C 6.085938 -5.8125 5.695312 -5.96875 5.1875 -5.96875 C 4.613281 -5.96875 4.15625 -5.789062 3.8125 -5.4375 C 3.476562 -5.082031 3.3125 -4.554688 3.3125 -3.859375 L 3.3125 0 L 1.046875 0 L 1.046875 -7.8125 L 3.203125 -7.8125 L 3.203125 -6.890625 C 3.503906 -7.222656 3.878906 -7.476562 4.328125 -7.65625 C 4.773438 -7.832031 5.265625 -7.921875 5.796875 -7.921875 Z M 5.796875 -7.921875 "/></g></g></g><g fill="#f6af70" fill-opacity="1"><g transform="translate(112.958816, 14.127898)"><g><path d="M 3.671875 0.109375 C 3.023438 0.109375 2.390625 0.03125 1.765625 -0.125 C 1.148438 -0.28125 0.660156 -0.476562 0.296875 -0.71875 L 1.046875 -2.34375 C 1.390625 -2.125 1.804688 -1.941406 2.296875 -1.796875 C 2.796875 -1.660156 3.285156 -1.59375 3.765625 -1.59375 C 4.722656 -1.59375 5.203125 -1.832031 5.203125 -2.3125 C 5.203125 -2.53125 5.066406 -2.6875 4.796875 -2.78125 C 4.535156 -2.882812 4.132812 -2.96875 3.59375 -3.03125 C 2.957031 -3.125 2.429688 -3.234375 2.015625 -3.359375 C 1.597656 -3.492188 1.238281 -3.71875 0.9375 -4.03125 C 0.632812 -4.351562 0.484375 -4.8125 0.484375 -5.40625 C 0.484375 -5.894531 0.625 -6.328125 0.90625 -6.703125 C 1.1875 -7.085938 1.597656 -7.382812 2.140625 -7.59375 C 2.691406 -7.8125 3.34375 -7.921875 4.09375 -7.921875 C 4.644531 -7.921875 5.191406 -7.859375 5.734375 -7.734375 C 6.285156 -7.617188 6.738281 -7.457031 7.09375 -7.25 L 6.34375 -5.625 C 5.65625 -6.019531 4.90625 -6.21875 4.09375 -6.21875 C 3.613281 -6.21875 3.25 -6.148438 3 -6.015625 C 2.757812 -5.878906 2.640625 -5.703125 2.640625 -5.484375 C 2.640625 -5.242188 2.769531 -5.070312 3.03125 -4.96875 C 3.289062 -4.875 3.707031 -4.785156 4.28125 -4.703125 C 4.914062 -4.597656 5.4375 -4.484375 5.84375 -4.359375 C 6.25 -4.242188 6.601562 -4.023438 6.90625 -3.703125 C 7.207031 -3.378906 7.359375 -2.929688 7.359375 -2.359375 C 7.359375 -1.878906 7.210938 -1.453125 6.921875 -1.078125 C 6.628906 -0.703125 6.203125 -0.410156 5.640625 -0.203125 C 5.085938 0.00390625 4.429688 0.109375 3.671875 0.109375 Z M 3.671875 0.109375 "/></g></g></g></g></g><path fill="#ffffff" d="M 14.761719 30.335938 L 28.234375 30.335938 L 28.234375 48.714844 L 14.761719 62.425781 Z M 14.761719 30.335938 " fill-opacity="1" fill-rule="evenodd"/><path fill="#ffffff" d="M 14.761719 12.839844 L 28.234375 12.839844 L 28.234375 14.949219 L 14.761719 28.664062 Z M 14.761719 12.839844 " fill-opacity="1" fill-rule="evenodd"/><path fill="#ffffff" d="M 31.9375 12.839844 L 38.671875 19.695312 L 28.21875 30.335938 L 14.761719 30.335938 L 14.761719 30.320312 Z M 31.9375 12.839844 " fill-opacity="1" fill-rule="evenodd"/><path fill="#ffffff" d="M 45.425781 12.832031 L 62.617188 30.335938 L 49.125 30.335938 L 31.9375 12.839844 L 31.945312 12.832031 Z M 45.425781 12.832031 " fill-opacity="1" fill-rule="evenodd"/><path fill="#ffffff" d="M 62.617188 30.335938 L 49.113281 44.082031 L 49.113281 30.335938 Z M 62.617188 30.335938 " fill-opacity="1" fill-rule="evenodd"/><path fill="#ffffff" d="M 46.019531 60.269531 L 31.835938 45.832031 L 34.5625 45.832031 L 48.074219 59.582031 L 58.765625 59.582031 L 59.441406 60.269531 Z M 46.019531 60.269531 " fill-opacity="1" fill-rule="evenodd"/><path fill="#ffffff" d="M 48.691406 58.578125 L 34.511719 44.144531 L 48.070312 44.144531 L 62.25 58.578125 Z M 48.691406 58.578125 " fill-opacity="1" fill-rule="evenodd"/><path fill="#ffffff" d="M 56.09375 61.269531 L 56.769531 61.957031 L 43.347656 61.957031 L 29.164062 47.519531 L 31.890625 47.519531 L 45.398438 61.269531 Z M 56.09375 61.269531 " fill-opacity="1" fill-rule="evenodd"/><path stroke-linecap="round" transform="matrix(0.00752581, 0, 0, 0.00752581, 1.061693, 0.000000000000031767)" fill="none" stroke-linejoin="miter" d="M 1584.238745 4038.185976 L 3707.141141 4029.362177 " stroke="#ea842a" stroke-width="62.5" stroke-opacity="1" stroke-miterlimit="5"/><path stroke-linecap="round" transform="matrix(0.00752581, 0, 0, 0.00752581, 1.061693, 0.000000000000031767)" fill="none" stroke-linejoin="miter" d="M 6310.681097 4037.147882 L 8295.51698 4028.84313 " stroke="#ea842a" stroke-width="62.5" stroke-opacity="1" stroke-miterlimit="5"/><path stroke-linecap="round" transform="matrix(0.00752581, 0, 0, 0.00752581, 1.061693, 0.000000000000031767)" fill="none" stroke-linejoin="miter" d="M 4102.654986 1706.107623 L 5000.087319 2667.382742 " stroke="#ea842a" stroke-width="62.5" stroke-opacity="1" stroke-miterlimit="5"/></svg>